<svg width="589" height="456" viewBox="0 0 589 456" fill="none" xmlns="http://www.w3.org/2000/svg">
<g id="Frame" clip-path="url(#clip0)">
<path id="Vector" d="M116.342 81.0553C113.29 84.9183 112.115 90.3498 110.801 95.456C100.22 136.607 74.1478 169.707 44.4556 193.35C31.8815 203.365 16.5732 216.796 19.3241 234.752C20.8054 244.395 27.3041 251.493 32.1321 259.347C42.2616 275.793 45.5471 298.146 40.719 317.833C35.2283 340.233 19.881 361.134 24.6311 383.783C27.5602 397.725 37.5059 407.647 47.0673 416.174C61.984 429.469 77.3758 441.924 93.2429 453.538C103.879 461.323 115.195 468.898 127.591 469.885C138.505 470.756 149.197 466.429 159.56 462.159C168.615 458.424 177.898 454.538 185.21 447.055C189.982 442.17 193.786 435.867 199.087 431.871C211.538 422.483 227.532 428.432 241.81 432.451C275.5 441.885 311.558 438.441 343.617 422.727C392.794 398.619 430.277 347.993 478.379 320.83C499.061 309.148 521.558 301.899 540.709 286.853C551.498 278.287 560.77 267.82 568.107 255.926C582.586 232.625 590.415 202.918 588.154 173.838C585.893 144.758 573.225 116.735 553.328 100.318C532.028 82.7457 505.125 79.4636 480.89 68.9143C455.865 58.0165 433.601 39.2881 408.815 27.5945C388.758 18.1586 366.931 13.5266 344.935 14.0382C322.939 14.5499 301.332 20.1922 281.698 30.5513C254.724 44.7835 227.381 77.9881 197.338 80.5092C175.932 82.252 133.059 59.8987 116.342 81.0553Z" fill="url(#paint0_linear)"/>
<g id="rider">
<path id="Vector_2" d="M215.508 321.998L191.726 297.517L184.294 305.373L208.076 329.854L215.508 321.998Z" fill="#535461"/>
<path id="Vector_3" d="M197.399 285.8C197.399 285.8 211.204 278.202 216.538 273.311C219.75 270.38 223.203 267.75 226.857 265.451L244.176 254.454L280.372 251.55L282.043 257.94C282.043 257.94 284.827 267.234 256.984 275.367C229.14 283.5 215.219 296.28 215.219 296.28C215.219 296.28 197.399 302.646 197.399 285.8Z" fill="#DB8B8B"/>
<path id="Vector_4" opacity="0.1" d="M216.694 295.019C215.709 295.803 215.219 296.257 215.219 296.257C215.219 296.257 197.399 302.647 197.399 285.8C197.399 285.8 198.262 285.324 199.626 284.528C201.005 286.869 202.936 288.803 205.234 290.145C207.533 291.486 210.123 292.19 212.757 292.19H214.645L216.694 295.019Z" fill="black"/>
<path id="Vector_5" opacity="0.05" d="M281.519 261.147C279.971 264.568 274.631 270.191 256.984 275.344C234.369 281.949 220.938 291.609 216.694 295.019C215.709 295.803 215.219 296.257 215.219 296.257C215.219 296.257 197.399 302.647 197.399 285.8C197.399 285.8 198.262 285.324 199.626 284.528C203.764 282.164 212.523 276.976 216.522 273.287C219.732 270.355 223.186 267.725 226.84 265.428L244.159 254.431L250.608 253.914L280.356 251.527L282.026 257.917C282.026 257.917 282.416 259.166 281.519 261.147Z" fill="black"/>
<path id="Vector_6" d="M197.677 282.024L182.92 292.19L226.133 329.949C226.133 329.949 232.482 325.883 229.14 321.235C229.14 321.235 218.003 311.36 217.446 297.418L214.105 292.771H212.217C209.025 292.772 205.912 291.738 203.307 289.813C200.702 287.888 198.735 285.166 197.677 282.024V282.024Z" fill="#ABB1D1"/>
<path id="Vector_7" opacity="0.1" d="M281.519 261.146C272.609 256.656 250.858 256.174 250.858 256.174L250.624 253.914L280.372 251.527L282.043 257.917C282.043 257.917 282.416 259.166 281.519 261.146Z" fill="black"/>
<path id="Vector_8" d="M250.858 255.012C250.858 255.012 277.031 255.593 283.713 261.402L280.372 191.112H244.176L250.858 255.012Z" fill="#ABB1D1"/>
<path id="Vector_9" opacity="0.05" d="M250.858 254.722C250.858 254.722 277.031 255.303 283.713 261.112L280.372 190.822H244.176L250.858 254.722Z" fill="black"/>
<path id="Vector_10" d="M271.886 212.002C271.886 212.002 337.401 209.678 338.738 218.514C340.074 227.349 273.222 223.626 273.222 223.626C273.222 223.626 267.876 218.043 271.886 212.002Z" fill="#535461"/>
<path id="Vector_11" opacity="0.05" d="M271.886 212.002C271.886 212.002 337.401 209.678 338.738 218.514C340.074 227.349 273.222 223.626 273.222 223.626C273.222 223.626 267.876 218.043 271.886 212.002Z" fill="black"/>
<path id="Vector_12" d="M218.849 247.338H207.261V352.413H218.849V247.338Z" fill="#6E6E6E"/>
<path id="Vector_13" opacity="0.1" d="M218.849 247.333V255.425C214.996 255.947 211.053 256.279 207.261 256.406V247.333H218.849Z" fill="black"/>
<path id="Vector_14" d="M217.981 238.625C216.355 238.494 214.737 238.267 213.136 237.945C206.854 236.69 191.017 234.059 186.757 238.526C181.411 244.103 183.193 253.868 197.454 255.262C211.716 256.656 236.229 252.938 241.135 247.356C241.135 247.333 232.264 239.769 217.981 238.625Z" fill="#535461"/>
<path id="Vector_15" d="M215.731 276.163L337.407 236.644L341.416 246.409L216.622 291.04L215.731 276.163Z" fill="#6E6E6E"/>
<path id="Vector_16" d="M251.833 338.465L339.634 248.268L344.535 255.703L260.743 346.83L251.833 338.465Z" fill="#6E6E6E"/>
<path id="Vector_17" opacity="0.1" d="M363.958 307.793C361.176 308.544 358.463 309.549 355.85 310.797L350.527 295.281C353.321 294.01 356.198 292.948 359.136 292.103L363.958 307.793Z" fill="black"/>
<path id="Vector_18" d="M378.854 353.342L372.618 357.06L329.104 230.231L327.155 224.555L337.407 218.508L339.974 226.861L378.854 353.342Z" fill="#6F6F6F"/>
<path id="Vector_19" opacity="0.1" d="M339.974 226.861L329.104 230.231L327.155 224.555L337.407 218.508L339.974 226.861Z" fill="black"/>
<path id="Vector_20" d="M273.668 236.644L334.728 214.79C334.728 214.79 345.426 216.184 341.411 225.485L279.91 244.544C279.91 244.544 270.555 245.474 273.668 236.644Z" fill="#535461"/>
<path id="Vector_21" opacity="0.1" d="M218.849 340.051V352.407H207.261V341.951C211.27 341.224 215.169 340.58 218.849 340.051Z" fill="black"/>
<path id="Vector_22" d="M143.973 357.542C143.973 357.542 237.571 331.982 245.145 341.736C252.718 351.489 260.743 364.513 237.143 369.16C213.542 373.808 142.208 361.254 142.208 361.254L143.973 357.542Z" fill="#6E6E6E"/>
<path id="Vector_23" d="M140.854 352.413L210.825 276.163L213.058 293.828L144.418 359.384L140.854 352.413Z" fill="#6E6E6E"/>
<path id="Vector_24" opacity="0.1" d="M375.959 364.269C379.898 364.269 383.092 360.937 383.092 356.828C383.092 352.718 379.898 349.386 375.959 349.386C372.019 349.386 368.825 352.718 368.825 356.828C368.825 360.937 372.019 364.269 375.959 364.269Z" fill="black"/>
<path id="Vector_25" opacity="0.1" d="M249.6 364.966C257.476 364.966 263.861 358.305 263.861 350.089C263.861 341.873 257.476 335.212 249.6 335.212C241.723 335.212 235.338 341.873 235.338 350.089C235.338 358.305 241.723 364.966 249.6 364.966Z" fill="black"/>
<path id="Vector_26" d="M250.496 364.966C258.373 364.966 264.758 358.305 264.758 350.089C264.758 341.873 258.373 335.212 250.496 335.212C242.62 335.212 236.235 341.873 236.235 350.089C236.235 358.305 242.62 364.966 250.496 364.966Z" fill="#535461"/>
<path id="Vector_27" d="M246.688 348.972L246.684 348.975C245.009 350.282 244.667 352.757 245.919 354.504L257.238 370.293C258.491 372.04 260.864 372.398 262.539 371.091L262.543 371.088C264.218 369.781 264.56 367.306 263.308 365.559L251.989 349.769C250.736 348.022 248.363 347.665 246.688 348.972Z" fill="#6C63FF"/>
<path id="Vector_28" d="M314.898 143.478L313.573 160.969C313.42 163.185 313.448 165.41 313.656 167.621C313.829 169.578 313.656 173.006 311.819 178.234C309.459 184.912 308.24 191.971 308.216 199.088V218.996L295.408 216.672C295.408 216.672 295.965 188.789 293.737 184.142C291.51 179.494 295.408 138.25 295.408 138.25L314.898 143.478Z" fill="#DB8B8B"/>
<path id="Vector_29" opacity="0.05" d="M314.241 152.145L313.573 160.969C313.422 163.183 313.452 165.406 313.662 167.615C313.834 169.572 313.662 173 311.824 178.234C309.465 184.912 308.245 191.971 308.221 199.088V218.996L295.413 216.672C295.413 216.672 295.97 188.789 293.743 184.142C292.167 180.848 293.659 159.197 294.667 146.842C295.085 141.759 295.413 138.25 295.413 138.25L314.904 143.478L314.241 152.145Z" fill="black"/>
<path id="Vector_30" d="M251.426 277.087L246.609 305.667C246.002 309.483 245.07 313.235 243.825 316.879C241.002 324.93 242.806 336.217 244.176 342.375C244.783 345.093 245.29 346.813 245.29 346.813L230.811 354.945L226.356 351.46V349.136L225.799 297.436C222.458 289.303 223.572 277.104 225.799 272.457C226.433 270.93 226.878 269.325 227.124 267.682C228.238 261.454 228.583 252.706 228.583 252.706C228.583 252.706 237.493 237.021 248.074 247.478C251.972 251.329 253.453 256.366 253.765 261.187C254.311 269.442 251.426 277.087 251.426 277.087Z" fill="#DB8B8B"/>
<path id="Vector_31" opacity="0.1" d="M253.765 261.17C246.041 265.956 232.604 267.31 227.124 267.664C228.238 261.437 228.583 252.689 228.583 252.689C228.583 252.689 237.493 237.004 248.074 247.46C251.972 251.312 253.453 256.348 253.765 261.17Z" fill="black"/>
<path id="Vector_32" d="M272.576 246.879C266.654 250.169 261.059 254.061 255.87 258.498C246.96 266.049 224.685 266.63 224.685 266.63V257.917C225.242 247.46 215.775 235.842 202.968 203.311C194.787 182.538 197.054 170.781 199.76 164.972C201.297 161.69 202.968 160.324 202.968 160.324L272.576 174.266L275.065 182.05L280.372 198.664C280.372 198.664 260.882 199.826 257.541 201.569C254.199 203.311 256.427 218.996 256.427 218.996C253.086 235.261 272.576 246.879 272.576 246.879Z" fill="#ABB1D1"/>
<path id="Vector_33" opacity="0.1" d="M314.898 143.478L314.241 152.145C304.551 155.05 297.635 145.802 297.635 145.802C296.624 146.084 295.631 146.432 294.661 146.842C295.079 141.759 295.408 138.25 295.408 138.25L314.898 143.478Z" fill="black"/>
<path id="Vector_34" opacity="0.1" d="M275.065 182.05C274.804 184.763 274.804 186.465 274.804 186.465C274.804 186.465 261.996 197.502 240.278 180.656C218.56 163.81 199.069 168.457 199.069 168.457C199.069 168.457 199.298 167.109 199.76 164.972C201.297 161.69 202.968 160.324 202.968 160.324L272.576 174.266L275.065 182.05Z" fill="black"/>
<path id="Vector_35" d="M322.405 120.794C320.951 132.615 320.467 147.515 320.467 147.515C307.659 157.972 297.635 144.611 297.635 144.611C285.54 147.998 279.854 159.041 277.176 168.678C275.741 173.891 274.944 179.272 274.804 184.693C274.804 184.693 271.418 187.598 265.181 188.179C259.284 188.696 250.83 187.093 240.278 178.884C218.56 162.038 199.069 166.685 199.069 166.685C199.069 166.685 202.968 143.449 211.877 136.478C220.787 129.507 227.47 120.794 238.607 94.072C249.744 67.3503 272.576 73.7403 272.576 73.7403C272.576 73.7403 273.69 68.5121 294.294 73.7403C299.312 75.1123 303.958 77.6794 307.865 81.2398C318.885 90.906 324.231 105.899 322.405 120.794Z" fill="white"/>
<path id="Vector_36" d="M301.739 86.8398C301.711 87.6124 301.65 88.4721 301.55 89.4306C300.436 99.8869 299.322 98.7251 287.071 101.049C279.453 102.495 275.494 95.8554 273.59 90.6273C272.9 88.7334 272.38 86.7771 272.036 84.7834L298.766 80.1361C298.766 80.1361 301.968 79.2008 301.739 86.8398Z" fill="#DB8B8B"/>
<path id="Vector_37" opacity="0.05" d="M277.176 168.707C275.741 173.92 274.944 179.301 274.804 184.722C274.804 184.722 271.418 187.627 265.181 188.208C265.005 187.838 264.871 187.448 264.78 187.046C263.666 181.818 255.313 172.523 255.313 172.523C249.744 167.295 248.631 158.001 248.631 158.001L239.442 129.827L236.38 127.213C236.38 127.213 249.188 116.756 260.325 125.47C271.462 134.184 268.121 152.773 268.121 152.773L270.349 159.163C272.66 161.196 275.01 164.78 277.176 168.707Z" fill="black"/>
<path id="Vector_38" d="M238.05 126.632L250.301 157.42C250.301 157.42 251.415 166.714 256.984 171.943C256.984 171.943 265.337 181.237 266.451 186.465C267.564 191.693 283.157 205.635 283.157 205.635C283.157 205.635 297.635 219.577 298.749 224.805C298.749 224.805 312.114 228.871 310.443 237.004C310.443 237.004 320.467 226.548 310.443 216.672C300.42 206.797 287.055 186.465 287.055 186.465C287.055 186.465 279.259 164.972 272.019 158.582L269.792 152.192C269.792 152.192 273.133 133.603 261.996 124.889C250.858 116.176 238.05 126.632 238.05 126.632Z" fill="#DB8B8B"/>
<path id="Vector_39" opacity="0.1" d="M245.29 346.795L230.811 354.928L226.356 351.443V349.119C231.359 348.748 236.22 347.218 240.584 344.64C241.92 343.85 243.179 343.072 244.187 342.386C244.772 345.076 245.29 346.795 245.29 346.795Z" fill="black"/>
<path id="Vector_40" opacity="0.1" d="M261.996 102.234L269.792 134.184C269.792 134.184 245.846 138.25 240.835 134.184C235.823 130.117 226.356 128.955 226.356 128.955C226.356 128.955 236.38 98.7483 241.948 95.2629C247.517 91.7774 261.996 102.234 261.996 102.234Z" fill="black"/>
<path id="Vector_41" d="M261.996 101.072L269.792 133.022C269.792 133.022 245.846 137.088 240.835 133.022C235.823 128.955 226.356 127.794 226.356 127.794C226.356 127.794 236.38 97.5865 241.948 94.1011C247.517 90.6156 261.996 101.072 261.996 101.072Z" fill="white"/>
<path id="Vector_42" opacity="0.1" d="M301.739 86.2588C300.18 88.5047 298.196 90.394 295.91 91.8105C293.625 93.227 291.085 94.1408 288.449 94.4955C285.812 94.8503 283.134 94.6386 280.578 93.8734C278.023 93.1083 275.645 91.8059 273.59 90.0464C272.9 88.1524 272.38 86.1962 272.036 84.2024L298.766 79.5552C298.766 79.5552 301.968 78.6199 301.739 86.2588Z" fill="black"/>
<path id="Vector_43" d="M305.431 73.7693C305.431 79.1616 303.378 84.3331 299.723 88.146C296.068 91.9589 291.11 94.101 285.941 94.101C280.772 94.101 275.814 91.9589 272.159 88.146C268.504 84.3331 266.451 79.1616 266.451 73.7693C266.451 73.4324 266.451 73.0955 266.451 72.7585C266.579 67.3662 268.756 62.248 272.502 58.5299C276.248 54.8117 281.256 52.7982 286.425 52.9322C291.595 53.0662 296.501 55.3369 300.065 59.2446C303.63 63.1523 305.56 68.377 305.431 73.7693V73.7693Z" fill="#DB8B8B"/>
<path id="Vector_44" opacity="0.1" d="M305.431 73.7693C305.433 75.6432 305.186 77.5082 304.696 79.3112C303.19 79.6537 301.619 79.5036 300.197 78.8813C298.114 78.0274 296.327 76.5577 294.327 75.5004C288.697 72.5262 281.998 73.1129 275.761 74.0946C272.665 74.5826 269.151 75.0357 266.718 72.9793C266.634 72.9104 266.554 72.8367 266.478 72.7585C266.607 67.3662 268.784 62.248 272.53 58.5299C276.276 54.8117 281.284 52.7982 286.453 52.9322C291.622 53.0662 296.529 55.3369 300.093 59.2446C303.657 63.1523 305.588 68.377 305.459 73.7693H305.431Z" fill="black"/>
<path id="Vector_45" opacity="0.05" d="M214.383 136.217C214.383 136.217 228.862 140.283 233.317 150.739C237.772 161.196 249.822 163.107 249.822 163.107" fill="black"/>
<path id="Vector_46" d="M268.956 366.256H235.544V377.293H268.956V366.256Z" fill="#535461"/>
<path id="Vector_47" d="M240.562 345.773C243.552 344.03 246.175 342.288 246.403 341.567C246.403 341.567 253.949 349.874 260.67 352.453C262.93 353.324 265.094 354.446 267.124 355.799C269.786 357.542 273.584 359.593 277.031 359.593C277.031 359.593 284.827 366.564 269.792 367.725C254.756 368.887 219.674 364.821 219.674 364.821L221.901 350.298C228.409 350.696 234.889 349.125 240.562 345.773Z" fill="#ABB1D1"/>
</g>
<g id="frontwheel">
<path id="Vector_48" d="M378.41 415.091L374.924 358.22L374.851 358.098L371.332 359.376L355.133 408.643L329.377 389.589L370.413 358.563L370.452 358.441L370.686 358.354L373.331 356.35L330.319 331.19L319.777 343.273L321.448 354.601L370.898 355.519V356.681L320.512 355.74L318.619 342.896L333.036 326.369L354.598 300.129L354.982 301.216L359.549 295.988L376.555 299.165V298.462L377.669 298.497V299.374L402.929 304.091L379.356 353.265L375.92 355.862V356.152V356.477L430.388 336.68L423.923 389.665L377.702 358.952L376.076 357.999L403.33 403.827L378.41 415.091ZM376.182 360.288L379.44 413.371L401.742 403.275L376.182 360.288ZM331.315 389.589L354.587 406.801L369.812 360.48L331.315 389.589ZM377.157 357.256L378.321 357.935L423.065 387.678L429.079 338.376L377.157 357.256ZM373.203 353.073L374.601 355.426L374.846 355.24L376.516 300.327L359.955 297.225L355.411 302.453L373.203 353.073ZM331.221 330.389L372.897 354.787L372.173 353.55L354.587 303.435L333.871 327.182L331.221 330.389ZM377.647 300.536L375.976 354.38L378.493 352.475L401.275 304.945L377.647 300.536Z" fill="#535461"/>
<path id="Vector_49" d="M375.575 288C369.665 287.993 363.781 288.822 358.084 290.463C355.146 291.308 352.269 292.37 349.475 293.641C334.59 300.372 322.626 312.623 315.9 328.023C309.173 343.424 308.16 360.88 313.058 377.014C317.956 393.149 328.416 406.815 342.415 415.369C356.414 423.923 372.956 426.757 388.842 423.323C404.729 419.889 418.829 410.431 428.417 396.779C438.005 383.126 442.398 366.25 440.747 349.413C439.095 332.577 431.517 316.978 419.478 305.634C407.438 294.29 391.793 288.007 375.57 288H375.575ZM375.353 407.719C364.059 407.714 353.106 403.68 344.314 396.285C335.522 388.891 329.419 378.581 327.019 367.069C324.619 355.557 326.066 343.534 331.121 332.999C336.175 322.463 344.532 314.048 354.804 309.151C357.417 307.903 360.13 306.898 362.912 306.148C369.713 304.306 376.811 303.997 383.735 305.24C390.66 306.483 397.251 309.25 403.07 313.357C408.889 317.465 413.803 322.818 417.484 329.06C421.166 335.302 423.531 342.291 424.422 349.561C425.312 356.831 424.709 364.216 422.651 371.224C420.593 378.232 417.128 384.702 412.486 390.204C407.844 395.706 402.133 400.114 395.731 403.134C389.329 406.154 382.384 407.717 375.358 407.719H375.353Z" fill="#535461"/>
<path id="Vector_50" d="M375.352 364.237C379.292 364.237 382.486 360.905 382.486 356.796C382.486 352.686 379.292 349.354 375.352 349.354C371.413 349.354 368.219 352.686 368.219 356.796C368.219 360.905 371.413 364.237 375.352 364.237Z" fill="#535461"/>
</g>
<g id="rearwheel">
<path id="Vector_51" d="M142.13 416.504L138.638 359.61L138.566 359.488L135.046 360.766L118.853 410.056L93.0973 391.008L134.122 359.982L134.161 359.86L134.395 359.773L137.04 357.769L94.0273 332.61L83.4914 344.693L85.162 356.02L134.623 356.961V358.123L84.2376 357.182L82.3331 344.321L96.756 327.788L118.335 301.531L118.719 302.617L123.285 297.389L140.247 300.561V299.858L141.361 299.893V300.77L166.621 305.487L143.071 354.638L139.635 357.234V357.525V357.85L194.097 338.053L187.631 391.037L141.411 360.325L139.785 359.372L167.038 405.194L142.13 416.504ZM139.902 361.701L143.16 414.785L165.462 404.689L139.902 361.701ZM95.0297 390.997L118.301 408.209L133.526 361.887L95.0297 390.997ZM140.871 358.663L142.035 359.343L186.779 389.085L192.794 339.784L140.871 358.663ZM136.917 354.481L138.315 356.833L138.56 356.648L140.231 301.734L123.669 298.644L119.125 303.872L136.917 354.481ZM94.9183 331.791L136.594 356.189L135.87 354.951L118.285 304.837L97.5746 328.578L94.9183 331.791ZM141.361 301.938L139.691 355.799L142.208 353.894L164.989 306.364L141.361 301.938Z" fill="#535461"/>
<path id="Vector_52" d="M203.213 342.706C200.979 332.354 196.458 322.691 190.009 314.485C187.615 311.436 184.975 308.606 182.118 306.027C171.133 296.134 157.31 290.325 142.818 289.513C128.327 288.701 113.986 292.931 102.048 301.54C90.1104 310.149 81.2505 322.649 76.8591 337.078C72.4677 351.508 72.7934 367.05 77.7851 381.265C82.7768 395.481 92.152 407.565 104.439 415.621C116.726 423.678 131.23 427.25 145.674 425.778C160.118 424.306 173.685 417.872 184.245 407.487C194.805 397.103 201.76 383.354 204.02 368.399C204.546 364.878 204.81 361.32 204.811 357.757C204.815 352.694 204.278 347.646 203.213 342.706ZM139.067 409.132C128.914 409.121 119.011 405.849 110.704 399.759C102.397 393.67 96.0889 385.059 92.6384 375.099C89.1878 365.138 88.7618 354.31 91.4182 344.088C94.0747 333.866 99.6847 324.745 107.485 317.966C115.286 311.187 124.899 307.078 135.017 306.199C145.135 305.32 155.267 307.713 164.035 313.053C172.803 318.393 179.782 326.42 184.023 336.043C188.264 345.666 189.561 356.418 187.737 366.837C185.649 378.712 179.635 389.448 170.742 397.176C161.85 404.904 150.641 409.135 139.067 409.132V409.132Z" fill="#535461"/>
<path id="Vector_53" d="M139.067 364.966C143.007 364.966 146.2 361.635 146.2 357.525C146.2 353.415 143.007 350.083 139.067 350.083C135.127 350.083 131.933 353.415 131.933 357.525C131.933 361.635 135.127 364.966 139.067 364.966Z" fill="#535461"/>
</g>
<g id="hat">
<path id="Vector_54" d="M254.347 60.9364C255.533 64.8169 261.23 64.9388 264.154 67.7969C265.674 69.284 266.381 71.4799 268.052 72.8043C270.374 74.6516 273.726 74.245 276.683 73.8035C282.636 72.9205 289.029 72.3919 294.397 75.0699C296.302 76.0167 298.011 77.3412 299.999 78.1138C301.987 78.8864 304.454 78.9794 306.069 77.6084C307.361 76.5105 307.835 74.7039 309.004 73.4956C309.912 72.5429 311.176 72.0085 312.212 71.172C314.484 69.3828 315.464 66.4666 316.11 63.6783C317.446 57.9389 317.83 51.7523 315.553 46.3092C313.275 40.8661 307.796 36.4338 301.815 36.7184C299.983 36.8055 298.195 37.2993 296.369 37.5084C291.607 38.0138 286.902 36.3466 282.124 36.062C280.738 35.8861 279.332 36.0861 278.042 36.6429C277.07 37.2069 276.23 37.9909 275.586 38.9375C273.399 41.9265 271.901 45.4011 271.209 49.0917C270.652 51.8743 270.625 54.3954 267.356 54.8253C263.641 55.3365 251.836 52.7282 254.347 60.9364Z" fill="#472727"/>
</g>
</g>
<defs>
<linearGradient id="paint0_linear" x1="534.55" y1="82.0013" x2="89.5497" y2="420.001" gradientUnits="userSpaceOnUse">
<stop stop-color="#63FFD0"/>
<stop offset="1" stop-color="#63ABFF"/>
</linearGradient>
<clipPath id="clip0">
<rect width="589" height="456" fill="white"/>
</clipPath>
</defs>
</svg>
